<?xml version="1.0" encoding="UTF-8"?>
<svg version="1.1" xmlns="http://www.w3.org/2000/svg" width="1024" height="1024">
<path d="M0 0 C337.92 0 675.84 0 1024 0 C1024 337.92 1024 675.84 1024 1024 C686.08 1024 348.16 1024 0 1024 C0 686.08 0 348.16 0 0 Z " fill="#FDFDFD" transform="translate(0,0)"/>
<path d="M0 0 C1.21331825 -0.00551503 1.21331825 -0.00551503 2.45114797 -0.01114148 C5.14138372 -0.02208868 7.83158073 -0.02600679 10.52183533 -0.02983093 C12.45924499 -0.03610236 14.39665348 -0.04274976 16.33406067 -0.04974365 C22.67911453 -0.07070571 29.02416842 -0.08113874 35.36924744 -0.09111023 C37.56058197 -0.09516073 39.75191637 -0.09927774 41.94325066 -0.10346031 C52.24127503 -0.12249478 62.53929231 -0.13672942 72.83733088 -0.14507228 C84.69346121 -0.15483818 96.54940453 -0.18114828 108.405469 -0.22157317 C117.59050367 -0.25180783 126.77548493 -0.26654811 135.96056837 -0.26985329 C141.43668815 -0.27219534 146.91260774 -0.28104544 152.38867378 -0.30631447 C157.54585797 -0.32972919 162.70271203 -0.3337749 167.85993576 -0.32355309 C169.74195776 -0.32306086 171.62399678 -0.32928761 173.50596809 -0.34310913 C187.98739634 -0.443426 201.04677487 1.04800946 214.02159119 8.08467102 C214.68481384 8.43094543 215.3480365 8.77721985 216.03135681 9.13398743 C220.69150089 11.59350791 225.28009245 14.09850525 229.58409119 17.14717102 C229.58409119 17.80717102 229.58409119 18.46717102 229.58409119 19.14717102 C228.55191467 19.53086853 228.55191467 19.53086853 227.49888611 19.9223175 C182.09181275 36.88149483 142.50641445 61.56090107 105.36729431 92.66816711 C103.03641174 94.60142103 100.65715551 96.46952439 98.27159119 98.33467102 C93.44481238 102.16649202 88.94945458 106.32439463 84.43565369 110.51435852 C80.87977782 113.79745487 77.25002949 116.98799478 73.58409119 120.14717102 C78.69510259 116.46724281 83.47214735 112.53700459 88.20909119 108.39717102 C94.46350574 102.96201678 100.99946262 98.13609226 107.79551697 93.40791321 C110.88859451 91.22764397 113.91851096 88.96223189 116.95909119 86.70967102 C149.62649439 62.66440977 184.52081207 39.78699666 221.58409119 23.14717102 C223.02075134 22.43367493 223.02075134 22.43367493 224.48643494 21.70576477 C226.89659119 20.52217102 226.89659119 20.52217102 230.58409119 19.14717102 C233.2504355 20.11762427 234.30066364 20.58031593 235.58409119 23.14717102 C234.70752869 23.55064758 233.83096619 23.95412415 232.92784119 24.36982727 C214.0139297 33.32730489 196.54027939 45.02008181 179.79356384 57.5070343 C177.47892434 59.22523852 175.14874511 60.92047367 172.81455994 62.61201477 C163.043633 69.71233954 153.56237749 77.08280878 144.25157166 84.77510071 C142.04728882 86.5888737 139.81818617 88.37030347 137.58409119 90.14717102 C122.7217022 102.01713269 108.05707545 114.05597158 94.03330994 126.91279602 C91.8848442 128.87279985 89.71525312 130.80061593 87.52159119 132.70967102 C79.96722245 139.29077753 72.58250394 145.97282051 65.58409119 153.14717102 C60.90722123 149.29827195 56.70033748 145.2653581 52.64659119 140.77217102 C46.01416608 133.54907192 39.13817596 126.58352439 32.20909119 119.64717102 C31.69339569 119.1290686 31.1777002 118.61096619 30.64637756 118.0771637 C16.81733965 102.66941902 16.81733965 102.66941902 -1.60340881 95.83467102 C-2.5044635 95.79728821 -3.40551819 95.7599054 -4.33387756 95.72138977 C-11.98984689 96.77905854 -17.81842786 101.71703851 -23.60340881 106.52217102 C-24.28854553 107.07388977 -24.97368225 107.62560852 -25.67958069 108.19404602 C-31.33717254 112.83338025 -37.64893192 118.020536 -38.78700256 125.62763977 C-38.80891663 126.52096008 -38.83083069 127.4142804 -38.85340881 128.33467102 C-38.89336975 129.21510071 -38.93333069 130.0955304 -38.97450256 131.00263977 C-37.20512764 140.96310702 -29.39963638 147.71137929 -22.49012756 154.49873352 C-21.41704037 155.56688365 -20.34477439 156.63585935 -19.27328491 157.70561218 C-17.0358759 159.93542235 -14.79221425 162.15865478 -12.54310608 164.37666321 C-9.68027374 167.19994861 -6.82828677 170.033869 -3.98031902 172.87214088 C-1.23707038 175.60534785 1.51103282 178.33365118 4.25987244 181.06123352 C4.77355188 181.57151722 5.28723133 182.08180092 5.81647682 182.60754776 C11.07242964 187.82164275 16.35543266 192.96362858 21.99111938 197.77067566 C24.13493785 199.62316053 26.11198248 201.61438204 28.08409119 203.64717102 C31.47447333 207.07826101 34.95081385 210.32488383 38.61924744 213.45576477 C39.96110682 214.61088428 41.28082882 215.79209647 42.58018494 216.99482727 C48.68841545 222.60296874 54.7549088 226.72149813 63.23643494 227.30342102 C76.29966789 226.43398788 86.51467036 215.55579915 95.05552673 206.74165344 C98.03402643 203.66793777 101.03261761 200.71074583 104.29039001 197.93208313 C108.71014106 194.08925521 112.8599758 190.01565462 116.99424744 185.86982727 C117.76538376 185.09964767 118.53652008 184.32946808 119.33102417 183.53594971 C120.94989272 181.91775729 122.56751669 180.2983189 124.1839447 178.6776886 C126.63977837 176.2164987 129.10090483 173.76069293 131.56260681 171.30537415 C133.14430772 169.72301236 134.72569836 168.14034035 136.30674744 166.55732727 C137.39609337 165.47101768 137.39609337 165.47101768 138.50744629 164.36276245 C142.50042349 160.35165943 146.32454347 156.25236969 150.00204468 151.94940186 C152.71041965 148.86408365 155.65188428 146.01764725 158.58409119 143.14717102 C162.86155122 138.91900597 166.99380426 134.66296466 170.88096619 130.06904602 C173.81666119 126.75628927 177.01840372 123.70601204 180.16612244 120.59638977 C182.89059037 117.83671062 185.41956495 114.95536445 187.93955994 112.01045227 C190.12682861 109.5322405 192.47688998 107.24352935 194.83409119 104.92842102 C196.66651606 103.06327428 198.37762253 101.12789356 200.08409119 99.14717102 C202.32967058 96.54069493 204.62960631 94.05782581 207.08409119 91.64717102 C210.08213632 88.69555579 212.84628559 85.60298481 215.59580994 82.42060852 C220.91803208 76.33508143 226.43867878 70.41776665 231.98252869 64.53388977 C238.34081158 57.77942744 244.54334905 50.94787348 250.53038025 43.86128235 C253.49045303 40.37233922 256.55301993 37.11018005 259.84971619 33.94404602 C263.71648392 29.9379353 267.11518259 25.49707228 270.58409119 21.14717102 C270.91409119 21.80717102 271.24409119 22.46717102 271.58409119 23.14717102 C270.58018494 25.64985657 270.58018494 25.64985657 269.02159119 28.78388977 C268.47245056 29.9189093 267.92330994 31.05392883 267.35752869 32.2233429 C266.18641418 34.61723872 265.00095818 37.00286368 263.81065369 39.3874054 C262.98694275 41.09960266 262.98694275 41.09960266 262.14659119 42.84638977 C261.63225525 43.88626038 261.11791931 44.92613098 260.58799744 45.99751282 C258.79478247 51.62355034 260.42644384 55.80729241 262.75888538 60.98516273 C266.92662039 71.9044723 267.01452316 83.12208755 266.95640564 94.61054993 C266.95883982 96.31726299 266.96256518 98.02397462 266.96746826 99.73068237 C266.97679378 104.32356551 266.96752348 108.91623242 266.95413613 113.50909853 C266.9427328 118.33876312 266.94693586 123.16841844 266.94888306 127.99809265 C266.94976307 136.10283395 266.93874562 144.20749113 266.92027283 152.31221008 C266.89909544 161.6565105 266.89560017 171.00068797 266.90183479 180.34500754 C266.90754636 189.37066546 266.90186261 198.39628049 266.89066124 207.42193222 C266.88604042 211.24697546 266.8851304 215.07199225 266.88724709 218.89703751 C266.88914277 223.40665346 266.88092858 227.9161458 266.86518669 232.42573357 C266.86097617 234.07195842 266.86007126 235.7181959 266.86287689 237.36442375 C266.90005615 263.09970989 259.83542908 285.63386124 241.51768494 304.24482727 C240.54125809 305.21372625 239.56350408 306.1812906 238.58409119 307.14717102 C237.45680603 308.28992493 237.45680603 308.28992493 236.30674744 309.45576477 C230.17421632 315.31421628 223.03200142 319.23386225 215.58409119 323.14717102 C214.70108337 323.63314758 213.81807556 324.11912415 212.90830994 324.61982727 C198.45198733 331.97164296 181.97955836 332.74413997 166.0877533 332.66474915 C164.22254902 332.67018796 162.35734905 332.67732035 160.49215698 332.68598938 C155.48799093 332.70401556 150.48415971 332.69724242 145.47998881 332.68447304 C140.20605209 332.67423818 134.93214116 332.68376732 129.65820312 332.6900177 C120.8081709 332.69726328 111.95827288 332.68778737 103.10826111 332.6686554 C92.92150178 332.64688596 82.73506278 332.65395117 72.54831117 332.67596102 C63.75193822 332.69419553 54.95566089 332.69663442 46.15927511 332.68620634 C40.92749992 332.68001629 35.69587459 332.67901066 30.46410942 332.69235229 C25.54310014 332.70402852 20.62249828 332.69567352 15.70153236 332.67277527 C13.91108242 332.66755062 12.12059733 332.66889259 10.33016205 332.67782593 C-17.24456877 332.80257479 -40.77021136 324.60102834 -61.07997131 305.57295227 C-76.39776412 289.66601358 -86.489688 267.97100198 -86.56307983 245.73104858 C-86.56675652 245.00554965 -86.57043321 244.28005072 -86.57422131 243.53256696 C-86.58519419 241.11250905 -86.58909111 238.69249416 -86.59291077 236.27241516 C-86.59918043 234.53234218 -86.60582768 232.79227053 -86.61282349 231.05220032 C-86.63381291 225.34558536 -86.64422363 219.6389703 -86.65419006 213.93232727 C-86.65824005 211.9620201 -86.66235704 209.99171307 -86.66654015 208.02140617 C-86.6855835 198.75921101 -86.69981424 189.49702376 -86.70815212 180.2348128 C-86.71791043 169.57288353 -86.74419683 158.91116265 -86.78465301 148.24930674 C-86.81490784 139.98999459 -86.82962999 131.73074185 -86.83293313 123.47137541 C-86.83527362 118.54742287 -86.84410248 113.62369316 -86.8693943 108.69980049 C-86.89284347 104.05972086 -86.89684128 99.42000809 -86.88663292 94.77988434 C-86.88614146 93.08814453 -86.89234518 91.39638561 -86.90618896 89.70470238 C-87.01405077 75.7284288 -84.96883215 63.16671298 -78.72840881 50.45967102 C-78.38664612 49.75253967 -78.04488342 49.04540833 -77.69276428 48.31684875 C-66.90071739 26.74497976 -48.05834137 12.11555612 -25.77919006 3.78779602 C-17.18014155 1.0313066 -8.97954062 -0.00223484 0 0 Z " fill="#284396" transform="translate(421.41590881347656,227.8528289794922)"/>
<path d="M0 0 C14.1075 -0.12375 14.1075 -0.12375 28.5 -0.25 C31.43455078 -0.28641602 34.36910156 -0.32283203 37.39257812 -0.36035156 C59.7791031 -0.52292972 80.12631153 1.55313333 97 18 C109.20863245 32.1182428 113.14074331 47.11167207 112.24267578 65.38525391 C110.88059376 80.06120809 102.60776068 93.29276144 91.60644531 102.76318359 C77.86351592 113.34398607 62.01537605 115.16696053 45.3125 115.09765625 C43.58483398 115.09614563 43.58483398 115.09614563 41.82226562 115.09460449 C37.54816686 115.08939972 33.27408235 115.07543858 29 115.0625 C19.43 115.041875 9.86 115.02125 0 115 C0 77.05 0 39.1 0 0 Z " fill="#2B4698" transform="translate(197,627)"/>
<path d="M0 0 C9.80500596 6.36465299 16.24778272 14.933563 19.6875 26.1875 C21.8737826 38.37634894 19.41961003 50.40504789 13 60.9375 C6.49591912 69.91313162 -2.11592139 76.34121185 -13.03515625 78.80078125 C-30.05354176 80.80891017 -44.43314072 79.36165865 -58.28515625 68.6640625 C-66.64147807 61.13419009 -70.76307794 50.09917772 -71.52734375 39.09375 C-71.9198356 25.65482896 -67.79379246 14.8957325 -58.6875 4.9375 C-42.52954277 -10.38309668 -18.53300206 -10.36403263 0 0 Z " fill="#2A4597" transform="translate(390.3125,663.8125)"/>
<path d="M0 0 C0.33 0.66 0.66 1.32 1 2 C0.15820312 4.04931641 0.15820312 4.04931641 -1.21875 6.6015625 C-1.73155518 7.55514648 -2.24436035 8.50873047 -2.77270508 9.49121094 C-3.3427124 10.52536133 -3.91271973 11.55951172 -4.5 12.625 C-5.08225342 13.69008789 -5.66450684 14.75517578 -6.2644043 15.85253906 C-14.54020227 30.80845668 -23.67091741 45.30712459 -33.26953125 59.44921875 C-34.45071418 61.19033039 -35.61409941 62.94361617 -36.76171875 64.70703125 C-43.10644126 74.43028525 -50.06562966 83.69317902 -57 93 C-57.80364282 94.08444471 -58.60706497 95.16905303 -59.41015625 96.25390625 C-68.95534659 109.0819284 -78.80379888 121.68360583 -89 134 C-90.4588499 135.79124608 -91.91717024 137.58292356 -93.375 139.375 C-94.91458923 141.25170619 -96.45633495 143.1266449 -98 145 C-99.22976563 146.49466797 -99.22976563 146.49466797 -100.484375 148.01953125 C-106.81374284 155.6423278 -113.48936155 162.89254071 -120.3046875 170.08203125 C-122.60868312 172.51376257 -124.88807977 174.96269005 -127.1328125 177.44921875 C-142.92491403 194.94152672 -163.27218646 216.02224706 -188.08984375 218.28125 C-208.1944574 218.85498452 -224.42284825 208.9322944 -239 196 C-241.65713442 193.47185269 -244.23595529 190.89423631 -246.78125 188.25390625 C-248.73798686 186.26616476 -250.73532105 184.47202732 -252.875 182.6875 C-262.31498504 174.58246234 -270.26090338 164.68365884 -278 155 C-278.88531769 153.92852831 -279.77210884 152.85827285 -280.66015625 151.7890625 C-295.1725209 134.18377655 -307.49865073 115.02003388 -319.40234375 95.59179688 C-320.83226513 93.27210779 -322.28322233 90.9683672 -323.75 88.671875 C-324.33394531 87.75075928 -324.33394531 87.75075928 -324.9296875 86.81103516 C-325.90784868 85.27016355 -326.89115913 83.73256386 -327.875 82.1953125 C-328.24625 81.47085938 -328.6175 80.74640625 -329 80 C-328.505 79.01 -328.505 79.01 -328 78 C-327.53851563 78.71542969 -327.07703125 79.43085938 -326.6015625 80.16796875 C-312.61541347 101.53416084 -295.58674716 120.61067909 -277.4453125 138.51953125 C-275.37775595 140.61681305 -273.4546956 142.74673326 -271.5625 145 C-268.21252211 148.92700758 -264.44585206 152.34395644 -260.61572266 155.78857422 C-257.27579576 158.8000178 -254.07888059 161.90358424 -250.9375 165.125 C-245.93472713 170.17549407 -240.56406032 174.58687179 -235 179 C-233.9162102 179.90675641 -232.8342439 180.81569584 -231.75390625 181.7265625 C-218.75669872 192.52495929 -205.35969277 200.15101226 -188.08935547 199.22216797 C-172.92502467 197.60969531 -160.92906462 186.39652147 -150.43359375 176.35253906 C-148.61037449 174.63240372 -146.72139661 172.99910155 -144.8125 171.375 C-138.69107836 166.06718504 -132.97919756 160.31946946 -127.69140625 154.18359375 C-123.36365743 149.19957595 -118.67043341 144.61927569 -113.9609375 140 C-110.02924152 136.1138449 -106.30037185 132.13088213 -102.69287109 127.94238281 C-99.98685527 124.83752819 -97.14371484 121.86523995 -94.3125 118.875 C-89.11690081 113.35097938 -84.09670133 107.71194169 -79.1953125 101.92602539 C-76.29177334 98.49904915 -73.33917012 95.13241152 -70.3125 91.8125 C-66.15817818 87.22790913 -62.24730329 82.47595328 -58.35742188 77.66650391 C-56.80627064 75.76215888 -55.24011071 73.87076869 -53.671875 71.98046875 C-43.47767501 59.68857047 -33.77087546 47.11397709 -24.32788086 34.23681641 C-20.9541363 29.63771753 -17.54679805 25.06781047 -14.09814453 20.5246582 C-9.05009764 13.86910131 -4.31122359 7.16513216 0 0 Z " fill="#F8F9FB" transform="translate(676,283)"/>
<path d="M0 0 C11.03636343 -0.61655662 22.15361871 2.99019906 30.72265625 9.86328125 C38.88996077 17.88282204 41.91264719 27.27026721 44.09765625 38.1953125 C44.09765625 42.1553125 44.09765625 46.1153125 44.09765625 50.1953125 C22.64765625 50.1953125 1.19765625 50.1953125 -20.90234375 50.1953125 C-16.99281037 59.96914594 -15.02637628 62.99279217 -6.90234375 68.0703125 C0.11133428 70.67088975 8.66073946 70.4496337 15.59765625 67.91796875 C18.51720284 66.45461758 21.30586757 64.88704002 24.09765625 63.1953125 C25.42425659 62.5153465 26.75502338 61.84304639 28.09765625 61.1953125 C28.64035156 61.74960937 29.18304687 62.30390625 29.7421875 62.875 C30.45761719 63.59945312 31.17304687 64.32390625 31.91015625 65.0703125 C32.61785156 65.78960938 33.32554687 66.50890625 34.0546875 67.25 C36.14164819 69.34890187 36.14164819 69.34890187 39.09765625 71.1953125 C39.09765625 71.8553125 39.09765625 72.5153125 39.09765625 73.1953125 C25.16761385 85.00507021 10.63247008 87.56762306 -7.32568359 86.46582031 C-12.83835065 85.88707907 -17.25360489 84.13528539 -21.90234375 81.1953125 C-22.71574219 80.68742188 -23.52914062 80.17953125 -24.3671875 79.65625 C-34.32319183 72.66551152 -39.52239644 62.98103959 -41.90234375 51.1953125 C-42.30207513 47.45605311 -42.25184179 43.93603374 -41.90234375 40.1953125 C-41.81984375 39.30199219 -41.73734375 38.40867187 -41.65234375 37.48828125 C-40.17477432 26.72972887 -35.13789871 16.34884809 -26.71875 9.390625 C-18.39682011 3.13294917 -10.24222957 1.05156361 0 0 Z " fill="#2B4697" transform="translate(562.90234375,656.8046875)"/>
<path d="M0 0 C6.00589069 4.18728454 10.10437634 9.73613708 12.46484375 16.64453125 C12.70535278 19.63752747 12.70535278 19.63752747 12.69189453 22.99536133 C12.69174347 24.25629105 12.69159241 25.51722076 12.69143677 26.81636047 C12.68122511 28.18226277 12.67079315 29.54816344 12.66015625 30.9140625 C12.65642316 32.31938984 12.65357758 33.72471978 12.65158081 35.13005066 C12.64396764 38.81752793 12.62433928 42.50484607 12.60217285 46.19226074 C12.58166434 49.95953214 12.57256842 53.72682941 12.5625 57.49414062 C12.54109098 64.87768489 12.50592797 72.26106544 12.46484375 79.64453125 C6.19484375 79.64453125 -0.07515625 79.64453125 -6.53515625 79.64453125 C-7.03015625 75.18953125 -7.03015625 75.18953125 -7.53515625 70.64453125 C-8.24478516 71.35029297 -8.24478516 71.35029297 -8.96875 72.0703125 C-13.85210644 76.66809254 -18.03352313 79.06952323 -24.53515625 80.64453125 C-25.33953125 80.87140625 -26.14390625 81.09828125 -26.97265625 81.33203125 C-37.59370049 82.62728055 -47.15522068 81.42719595 -56.2265625 75.51171875 C-61.62861858 71.1425431 -64.0967471 66.63231965 -65.10546875 59.7578125 C-65.57555437 52.63601537 -65.15771015 46.21698571 -60.50390625 40.4765625 C-52.46683783 32.99762383 -43.34973188 30.28518211 -32.53515625 30.44921875 C-31.81400635 30.45204865 -31.09285645 30.45487854 -30.34985352 30.45779419 C-28.07810878 30.46886429 -25.80677898 30.4939423 -23.53515625 30.51953125 C-21.98177658 30.52957815 -20.42839065 30.53870098 -18.875 30.546875 C-15.09489563 30.56876014 -11.31509593 30.60319611 -7.53515625 30.64453125 C-7.82977827 28.87266277 -8.13202078 27.10206021 -8.4375 25.33203125 C-8.60499756 24.34589844 -8.77249512 23.35976563 -8.94506836 22.34375 C-9.73476425 18.73147124 -10.66280359 17.00133343 -13.53515625 14.64453125 C-21.47232938 10.5932658 -30.25993029 10.53223658 -38.72265625 12.89453125 C-41.98501394 13.96815294 -44.89833215 15.31472421 -47.91015625 16.95703125 C-51.53515625 18.64453125 -51.53515625 18.64453125 -53.58984375 18.1015625 C-56.24040609 16.11630195 -57.01431251 14.05543574 -58.28515625 11.01953125 C-58.713125 10.01664063 -59.14109375 9.01375 -59.58203125 7.98046875 C-59.8965625 7.20960938 -60.21109375 6.43875 -60.53515625 5.64453125 C-43.03137989 -6.28541689 -19.35370182 -10.347819 0 0 Z " fill="#2A4596" transform="translate(814.53515625,662.35546875)"/>
<path d="M0 0 C44.41648707 0 44.41648707 0 56.10546875 10.0625 C63.35812423 17.4796487 68.14134128 27.16877214 68.375 37.625 C67.90148399 48.73684236 64.73803517 58.91192717 57.04296875 67.1484375 C40.93561132 81.74669261 21.2909522 78 0 78 C0 52.26 0 26.52 0 0 Z " fill="#FCFCFD" transform="translate(219,646)"/>
<path d="M0 0 C7.93888672 4.1699203 13.14136788 11.61248621 16 20 C16.24050903 22.95503235 16.24050903 22.95503235 16.22705078 26.2590332 C16.22689972 27.49994217 16.22674866 28.74085114 16.22659302 30.0193634 C16.21638143 31.36317101 16.20594946 32.70697695 16.1953125 34.05078125 C16.19157931 35.4336883 16.18873378 36.81659802 16.18673706 38.19950867 C16.17912462 41.8278034 16.15949691 45.45593637 16.1373291 49.08416748 C16.11681899 52.79111544 16.10772433 56.4980897 16.09765625 60.20507812 C16.07624852 67.47013414 16.04108613 74.73502373 16 82 C9.07 82 2.14 82 -5 82 C-5.00410889 80.40607422 -5.00821777 78.81214844 -5.01245117 77.16992188 C-5.03428241 71.23567719 -5.08861534 65.30209175 -5.15258789 59.36816406 C-5.17573278 56.80377538 -5.19015531 54.23929212 -5.19555664 51.67480469 C-5.20487116 47.98052259 -5.24592147 44.2877211 -5.29296875 40.59375 C-5.2890361 39.4538562 -5.28510345 38.3139624 -5.28105164 37.13952637 C-5.40761044 30.17785135 -6.36623633 25.34935534 -11 20 C-15.84250631 15.95253204 -21.292029 16.36700193 -27.32421875 16.6015625 C-32.4796654 17.16038881 -35.40302646 18.30857757 -39 22 C-43.77689294 29.0836927 -44.73868645 35.52604321 -44.70703125 43.9140625 C-44.72215256 45.00971527 -44.73727386 46.10536804 -44.75285339 47.23422241 C-44.79548414 50.69802834 -44.804545 54.16095867 -44.8125 57.625 C-44.8356633 59.98830413 -44.86103241 62.35158773 -44.88867188 64.71484375 C-44.95128158 70.47663908 -44.98380896 76.23789486 -45 82 C-51.93 82 -58.86 82 -66 82 C-66 54.28 -66 26.56 -66 -2 C-59.4 -2 -52.8 -2 -46 -2 C-45.67 2.29 -45.34 6.58 -45 11 C-44.2575 9.96875 -43.515 8.9375 -42.75 7.875 C-32.14810657 -4.63370879 -14.39506965 -5.38285891 0 0 Z " fill="#2B4698" transform="translate(491,660)"/>
<path d="M0 0 C6.93 0 13.86 0 21 0 C24.15915536 7.53583511 27.26896174 15.09042633 30.35546875 22.65625 C30.94075851 24.09037231 30.94075851 24.09037231 31.53787231 25.5534668 C33.17065108 29.55478803 34.80308374 33.55624792 36.43334961 37.55859375 C37.63514495 40.50839032 38.83889793 43.45738166 40.04296875 46.40625 C40.41068893 47.31040649 40.77840912 48.21456299 41.15727234 49.14611816 C41.50135635 49.98799683 41.84544037 50.82987549 42.19995117 51.69726562 C42.50019699 52.43384399 42.80044281 53.17042236 43.10978699 53.92932129 C43.99846309 55.99642508 44.97368514 57.99815401 46 60 C48.12729695 54.85511343 50.2519494 49.70914024 52.375 44.5625 C52.69068939 43.79745148 53.00637878 43.03240295 53.33163452 42.24417114 C57.99142954 30.94593447 62.58833282 19.62603055 67.06591797 8.25415039 C67.44248535 7.3027417 67.81905273 6.35133301 68.20703125 5.37109375 C68.69393433 4.1325061 68.69393433 4.1325061 69.19067383 2.86889648 C70 1 70 1 71 0 C72.56172745 -0.08685603 74.12729344 -0.10702219 75.69140625 -0.09765625 C76.63564453 -0.09443359 77.57988281 -0.09121094 78.55273438 -0.08789062 C79.54595703 -0.07951172 80.53917969 -0.07113281 81.5625 -0.0625 C82.55958984 -0.05798828 83.55667969 -0.05347656 84.58398438 -0.04882812 C87.05604849 -0.03700007 89.52799518 -0.02051849 92 0 C86.07473029 14.8682663 79.77247328 29.58011632 73.375 44.25 C68.63766455 55.11467991 64.05955296 66.02835312 59.75512695 77.07250977 C58.84863528 79.3863642 57.92293755 81.69265612 57 84 C49.41 84 41.82 84 34 84 C13.4907878 35.53733225 13.4907878 35.53733225 4.06640625 12.55957031 C3.13888791 10.33335642 2.1719837 8.13103883 1.1875 5.9296875 C0 3 0 3 0 0 Z " fill="#2A4596" transform="translate(609,658)"/>
<path d="M0 0 C6.6415044 3.3207522 10.05338676 7.29422828 13.5 13.75 C15.77009031 20.56027093 15.61939637 29.11757552 12.8125 35.75 C9.48965483 41.96879705 5.85786713 46.40252895 -0.765625 49.05859375 C-8.71798528 51.06940485 -16.3615859 50.84948924 -23.5 46.75 C-29.67204029 42.9865608 -32.28426008 36.39721975 -34.5 29.75 C-35.1613479 21.82466701 -35.06534537 15.4150861 -30.5 8.75 C-29.6646875 7.4196875 -29.6646875 7.4196875 -28.8125 6.0625 C-20.84731938 -1.90268062 -10.6876396 -3.63662595 0 0 Z " fill="#FBFBFC" transform="translate(374.5,676.25)"/>
<path d="M0 0 C7.26 0 14.52 0 22 0 C22 27.72 22 55.44 22 84 C14.74 84 7.48 84 0 84 C0 56.28 0 28.56 0 0 Z " fill="#314A99" transform="translate(711,658)"/>
<path d="M0 0 C4.23197542 2.54992176 7.38361574 6.07977937 9.5625 10.5 C10.2225 13.47 10.8825 16.44 11.5625 19.5 C-3.6175 19.5 -18.7975 19.5 -34.4375 19.5 C-33.44910429 11.59283434 -32.73972148 8.82583939 -27.4375 3.5 C-19.73675606 -2.14938297 -8.93045196 -3.92870658 0 0 Z " fill="#F4F5F9" transform="translate(576.4375,674.5)"/>
<path d="M0 0 C1.41335466 0.03013688 2.8267712 0.05750615 4.24023438 0.08203125 C7.68228765 0.1477365 11.12199469 0.25104646 14.5625 0.375 C14.82921352 7.49883199 14.54758711 11.95386508 9.5625 17.375 C3.47221702 22.79443108 -3.0062329 22.93322298 -10.88671875 22.94140625 C-15.01979517 22.28211463 -17.20004055 20.98677182 -20.4375 18.375 C-22.40871981 15.41817029 -22.81865169 14.44961847 -23 11.0625 C-23.06316406 10.32386719 -23.12632812 9.58523438 -23.19140625 8.82421875 C-22.15608964 5.46078084 -20.68659616 3.75881059 -17.94458008 1.57250977 C-12.42892979 -1.06204712 -5.98025077 -0.22193018 0 0 Z " fill="#FAFAFC" transform="translate(792.4375,706.625)"/>
<path d="M0 0 C0.33 0.66 0.66 1.32 1 2 C0.49364014 2.22026855 -0.01271973 2.44053711 -0.53442383 2.66748047 C-17.94307994 10.27728744 -34.73918346 18.71262183 -50.90527344 28.70605469 C-53.28913861 30.17860543 -55.67978914 31.63984688 -58.0703125 33.1015625 C-67.84864265 39.09819351 -77.53666505 45.19657345 -87.01904297 51.65185547 C-89.25010512 53.17020957 -91.4865576 54.68048027 -93.72265625 56.19140625 C-101.60396184 61.53301577 -109.41733476 66.91825365 -116.984375 72.69921875 C-119.25296073 74.43004388 -121.53211985 76.13830332 -123.828125 77.83203125 C-132.51081626 84.2512548 -140.8229981 90.94817138 -149 98 C-150.99370303 99.67441246 -152.99598194 101.3379138 -155 103 C-155.66 102.67 -156.32 102.34 -157 102 C-152.20488421 97.07002157 -147.21921896 92.47482468 -142 88 C-140.9566862 87.09284461 -139.91374621 86.18525919 -138.87109375 85.27734375 C-131.37689214 78.77382862 -123.73663182 72.50798339 -115.87890625 66.44921875 C-113.89472813 64.91880278 -111.91627937 63.38113813 -109.9375 61.84375 C-81.06888218 39.49741288 -50.21965499 19.16025605 -16 6 C-15.21963379 5.6994873 -14.43926758 5.39897461 -13.63525391 5.08935547 C-9.10391264 3.35444565 -4.55921789 1.66018417 0 0 Z " fill="#F0F1F7" transform="translate(651,246)"/>
<path d="M0 0 C3.17619926 2.04688397 4.91655946 3.53106445 6.8125 6.8125 C7.52306857 10.74857087 7.19940466 13.86673306 5.6875 17.5625 C2.21072377 21.73463147 -0.71279533 23.6018279 -6.125 24.375 C-10.79729621 24.13286565 -13.87626792 21.98614626 -17.1875 18.8125 C-19.79739311 15.4082916 -19.61967608 11.99020215 -19.1875 7.8125 C-14.92181822 -0.40288713 -8.89415944 -3.31351038 0 0 Z " fill="#2A4697" transform="translate(728.1875,622.1875)"/>
<path d="M0 0 C1.609375 1.3046875 1.609375 1.3046875 2.609375 3.3046875 C0.50853291 4.31165318 -1.59641989 5.3100464 -3.703125 6.3046875 C-4.87488281 6.8615625 -6.04664063 7.4184375 -7.25390625 7.9921875 C-10.390625 9.3046875 -10.390625 9.3046875 -13.390625 9.3046875 C-13.390625 8.6446875 -13.390625 7.9846875 -13.390625 7.3046875 C-14.380625 6.6446875 -15.370625 5.9846875 -16.390625 5.3046875 C-14.14811622 4.24339324 -11.89913411 3.20587517 -9.640625 2.1796875 C-9.00640625 1.87675781 -8.3721875 1.57382813 -7.71875 1.26171875 C-2.97203311 -0.86441486 -2.97203311 -0.86441486 0 0 Z " fill="#354E98" transform="translate(654.390625,247.6953125)"/>
<path d="M0 0 C0.66 0.33 1.32 0.66 2 1 C0.80894803 4.5731559 -0.29454177 5.25003825 -3.25 7.5 C-7.63128842 10.90343564 -11.90062077 14.40567403 -16.125 18 C-16.70540039 18.49306641 -17.28580078 18.98613281 -17.88378906 19.49414062 C-19.2568413 20.66160657 -20.62856932 21.83062964 -22 23 C-22.66 22.67 -23.32 22.34 -24 22 C-19.86760018 17.75137644 -15.62026906 13.71528115 -11.1328125 9.84375 C-8.73567047 7.77149536 -6.36665177 5.66948778 -4 3.5625 C-3.236875 2.88316406 -2.47375 2.20382812 -1.6875 1.50390625 C-1.130625 1.00761719 -0.57375 0.51132812 0 0 Z " fill="#DBE0F0" transform="translate(518,326)"/>
<path d="M0 0 C0.33 0.66 0.66 1.32 1 2 C-2.22838633 3.4600652 -5.45784485 4.91774383 -8.6875 6.375 C-10.05551758 6.99375 -10.05551758 6.99375 -11.45117188 7.625 C-12.33740234 8.02460938 -13.22363281 8.42421875 -14.13671875 8.8359375 C-15.35427856 9.38580322 -15.35427856 9.38580322 -16.59643555 9.94677734 C-19.04441897 11.01946403 -21.51331466 12.02080717 -24 13 C-24 11.68 -24 10.36 -24 9 C-16.08 6.03 -8.16 3.06 0 0 Z " fill="#D5DBED" transform="translate(651,246)"/>
<path d="M0 0 C0.66 0.33 1.32 0.66 2 1 C-1.41940033 7.51314349 -7.01815804 10.93647287 -13 15 C-13.66 14.67 -14.32 14.34 -15 14 C-10.75802296 8.34403061 -5.5954014 4.28075369 0 0 Z " fill="#E7EAF4" transform="translate(533,314)"/>
<path d="M0 0 C0.33 0.66 0.66 1.32 1 2 C-0.23427612 5.14511841 -1.98546732 8.04975456 -3.625 11 C-4.06457031 11.83273437 -4.50414062 12.66546875 -4.95703125 13.5234375 C-8.32566247 19.62846417 -8.32566247 19.62846417 -11.8359375 21.5625 C-12.55007813 21.706875 -13.26421875 21.85125 -14 22 C-12.72100318 19.34308851 -11.33270507 16.87963053 -9.6875 14.43359375 C-9.25179687 13.78326172 -8.81609375 13.13292969 -8.3671875 12.46289062 C-7.91601562 11.79451172 -7.46484375 11.12613281 -7 10.4375 C-6.54882812 9.76525391 -6.09765625 9.09300781 -5.6328125 8.40039062 C-4.79402804 7.15089957 -3.95429365 5.90204528 -3.11328125 4.65405273 C-2.07111469 3.10565834 -1.03532029 1.55298043 0 0 Z " fill="#D3DAEC" transform="translate(676,283)"/>
<path d="M0 0 C0.66 0.33 1.32 0.66 2 1 C-2.46351289 6.22325977 -7.0744893 11.20922972 -12 16 C-12.66 15.67 -13.32 15.34 -14 15 C-9.38 10.05 -4.76 5.1 0 0 Z " fill="#324A99" transform="translate(556,452)"/>
<path d="M0 0 C0.99 0.33 1.98 0.66 3 1 C-1.29 5.29 -5.58 9.58 -10 14 C-10.33 13.34 -10.66 12.68 -11 12 C-3.70159453 3.55353075 -3.70159453 3.55353075 0 0 Z " fill="#324D9B" transform="translate(652,294)"/>
<path d="M0 0 C3.12623069 2.92565394 5.4522122 5.95379481 7.75 9.5625 C8.67039062 10.98755859 8.67039062 10.98755859 9.609375 12.44140625 C11 15 11 15 11 18 C7.91434503 15.28423427 5.92712681 11.91344172 3.8125 8.4375 C3.44447266 7.84775391 3.07644531 7.25800781 2.69726562 6.65039062 C0 2.25169585 0 2.25169585 0 0 Z " fill="#BDC6E7" transform="translate(347,361)"/>
<path d="M0 0 C0.33 0.99 0.66 1.98 1 3 C0.36191406 3.62648438 -0.27617188 4.25296875 -0.93359375 4.8984375 C-1.75988281 5.71570313 -2.58617187 6.53296875 -3.4375 7.375 C-4.26121094 8.18710937 -5.08492187 8.99921875 -5.93359375 9.8359375 C-8.03434672 11.82348515 -8.03434672 11.82348515 -9 14 C-9.99 13.67 -10.98 13.34 -12 13 C-8.04 8.71 -4.08 4.42 0 0 Z " fill="#314C9A" transform="translate(638,309)"/>
<path d="M0 0 C1 2 1 2 -0.0625 5.5625 C-2 9 -2 9 -5.1875 9.9375 C-6.115625 9.958125 -7.04375 9.97875 -8 10 C-7.04367001 8.70684939 -6.08486149 7.41553147 -5.125 6.125 C-4.59132813 5.40570313 -4.05765625 4.68640625 -3.5078125 3.9453125 C-2 2 -2 2 0 0 Z " fill="#39539C" transform="translate(692,249)"/>
<path d="M0 0 C0.99 0.33 1.98 0.66 3 1 C-0.96 4.465 -0.96 4.465 -5 8 C-5.66 7.67 -6.32 7.34 -7 7 C-4.69 4.69 -2.38 2.38 0 0 Z " fill="#BEC8E5" transform="translate(501,341)"/>
<path d="M0 0 C0.66 0.33 1.32 0.66 2 1 C-0.31 3.64 -2.62 6.28 -5 9 C-5.66 8.67 -6.32 8.34 -7 8 C-4.69 5.36 -2.38 2.72 0 0 Z " fill="#334F9A" transform="translate(670,274)"/>
<path d="M0 0 C0 3 0 3 -2 5.1875 C-2.66 5.785625 -3.32 6.38375 -4 7 C-4.66 6.67 -5.32 6.34 -6 6 C-2.25 1.125 -2.25 1.125 0 0 Z " fill="#354F9D" transform="translate(759,699)"/>
<path d="M0 0 C1.2077558 3.62326739 0.54311128 4.64146369 -1 8 C-1.99 8 -2.98 8 -4 8 C-2.68 5.36 -1.36 2.72 0 0 Z " fill="#364FA2" transform="translate(662,310)"/>
<path d="M0 0 C-2.75 1.625 -2.75 1.625 -6 3 C-8.375 2.1875 -8.375 2.1875 -10 1 C-3.71428571 -1.42857143 -3.71428571 -1.42857143 0 0 Z " fill="#DBE0EF" transform="translate(642,252)"/>
</svg>
